<svg version="1.1" id="Capa_1" xmlns="http://www.w3.org/2000/svg" xmlns:xlink="http://www.w3.org/1999/xlink" x="0px" y="0px" viewBox="0 0 1200 1200" enable-background="new 0 0 1200 1200" xml:space="preserve" transform="matrix(-1,0,0,1,0,0)">
<g>
	<path d="M1149.862,657.618c0,14.966-15.765,31.338-16.124,35.61c-0.083,1.047,0.606,2.122,1.654,3.252
		c0.055,0.055,0.083,0.083,0.138,0.138c3.39,3.556,10.721,7.8,10.997,13.367c-7.221,9.178-59.478,8.461-93.544,7.579h-0.193
		c-9.454-0.248-17.502-0.496-22.793-0.496c-12.706,27.892-40.819,47.296-73.479,47.296c-29.739,0-55.702-16.068-69.731-40.02
		c-9.15,0.221-18.08,0.331-26.542,0.248c0,0,0-0.11,0-0.303h-0.138c-3.307-0.028-6.532-0.083-9.674-0.165
		c-1.213,0-2.398-0.055-3.583-0.083h-0.138c-7.965,0.276-14.001,0.276-21.636-1.295c-53.773,0-370.621,0.386-437.734-2.232h-0.276
		c-12.1-0.469-24.172-1.681-36.271-2.37c-12.789,27.727-40.819,46.965-73.342,46.965c-35.169,0-65.045-22.463-76.153-53.828
		c-8.379-0.358-15.269-0.689-20.065-0.937c-0.551-0.028-1.103-0.055-1.599-0.055l-3.611-0.221l-1.24-0.083h-0.138
		c-0.358-0.028-0.772-0.083-1.24-0.11c-0.717-0.055-1.516-0.11-2.425-0.165c-4.63,0-9.261-0.22-13.891-0.469
		c-16.289-0.91-32.605-2.453-48.757-4.851c-10.28-1.516-24.53-2.646-34.204-8.544c-0.441-0.248-0.882-0.524-1.295-0.799
		c-0.551-0.386-1.102-0.799-1.626-1.24c-0.772-0.606-1.488-1.268-2.15-1.957c-7.993-8.461-14.112-23.758-17.336-33.074
		c-0.661-1.957-1.213-3.693-1.626-5.016c-0.441-1.433,0.661-2.922,2.177-2.922h4.796c0,0-3.914-15.324,2.48-20.313
		c-5.347-21.002-10.666-37.759-1.406-43.106c3.445-1.984,8.792-8.048,14.167-14.883c8.737-11.218,17.612-24.557,18.218-25.44
		l-6.201-9.84c-2.012-3.225-1.736-7.386,0.689-10.336l3.721-4.437c1.791-2.15,4.52-3.335,7.331-3.142
		c1.709,0.11,3.831,0.248,6.284,0.386c9.398,0.496,23.758,0.937,37.401,0.11c3.611-0.221,7.166-0.524,10.584-0.937h0.11
		c2.673-0.358,5.264-0.744,7.69-1.24c2.205-0.413,4.272-0.91,6.174-1.488c2.756-0.827,6.422-2.012,10.914-3.5
		c42.472-14.084,158.645-55.096,278.069-71.192c5.099-0.661,10.225-1.323,15.352-1.902c2.536-0.303,5.071-0.579,7.635-0.854
		c22.876-2.425,45.697-3.831,67.994-3.831c10.336,0,20.396,0.579,30.263,1.681c69.483,7.69,129.733,41.453,205.251,87.922h0.083
		c50.272,0,121.629,2.343,184.442,8.048c6.394,0.579,12.678,1.185,18.88,1.847c16.876,1.722,33.714,3.878,50.428,6.787
		c16.452,2.864,33.659,5.707,49.29,11.707c2.674,1.02,5.071,2.067,7.222,3.142c5.311,2.681,10.631,5.345,15.903,8.103
		c0.055,0,0.083,0.028,0.11,0.055c2.37,1.24,4.603,2.453,6.752,3.583c0.055,0,0.083,0.028,0.11,0.055
		c28.113,15.187,36.85,23.262,36.85,31.365c0,9.95-6.146,22.435-6.146,22.435S1149.862,642.652,1149.862,657.618z"></path>
	<path fill="#555468" d="M277.445,745.422c-33.724,0-61.062-27.339-61.062-61.062c0-33.724,27.339-61.062,61.062-61.062
		s61.062,27.339,61.062,61.062C338.507,718.083,311.169,745.422,277.445,745.422z M1017.576,683.61
		c0-33.724-27.338-61.062-61.062-61.062s-61.062,27.339-61.062,61.062c0,33.724,27.339,61.062,61.062,61.062
		S1017.576,717.334,1017.576,683.61z"></path>
	<path fill="#E6342E" d="M760.503,709.31c1.04,0.046,2.062,0.095,3.091,0.142l-3.095-0.134
		C760.501,709.316,760.502,709.313,760.503,709.31z M484.619,704.416c0.146,0.001,0.29,0.002,0.437,0.003L484.619,704.416
		L484.619,704.416z M539.591,459.197c-32.485,0-67.573,3.93-100.038,9.261l15.132,44.489c59.683,3.157,135.135,6.046,211.424,6.047
		c0.004,0,0.009,0,0.013,0c17.877,0,35.325-0.16,52.122-0.475C674.563,490.1,613.371,459.197,539.591,459.197z M325.087,494.643
		c0.312,0.371,0.649,0.74,1.004,1.097c2.553,2.553,7.516,6.754,10.801,9.472c11.178,0.915,52.14,4.151,108.899,7.257l-14.495-42.615
		C382.528,478.323,340.914,489.559,325.087,494.643z M1150,657.618c0,14.966-15.766,31.365-16.124,35.637
		c-0.082,1.02,0.607,2.067,1.654,3.224v0.138c0.248,5.485-8.489,11.742-17.833,11.079c-9.095-0.634-61.02,0.028-64.576,0.055
		v-39.854c0-24.254-24.778-82.767-96.383-82.767c-71.578,0-96.355,58.513-96.355,82.767v56.391h-0.276
		c-3.307-0.027-6.532-0.082-9.673-0.166c-1.213,0-2.398-0.055-3.584-0.082c-4.354-1.681-26.817-10.17-35.196-11.632
		c-13.665-1.15-30.015-2.126-48.059-2.957l0.611,0.026c-1.222-0.057-2.464-0.113-3.702-0.169
		c-104.374-4.665-262.915-4.617-295.3-5.059c-38.338-0.524-73.011,5.485-91.256,5.485v-42.17c0-24.254-24.778-82.767-96.355-82.767
		c-71.578,0-96.357,58.513-96.357,82.767v42.776c0,0.028-1.597-0.055-1.597-0.055l-3.611-0.221l-1.241-0.082h-0.137
		c-0.359-0.027-0.772-0.082-1.241-0.111c-0.688-0.053-1.456-0.105-2.32-0.159c-10.502-9.399-40.185-22.517-72.073-23.454
		c-31.866-0.964-36.981-25.789-41.938-35.395h0.131c0,0-3.914-15.325,2.48-20.313c-5.345-21.029-10.665-37.787-1.405-43.107
		c9.26-5.347,32.412-40.267,32.412-40.267l-6.228-9.922c-2.012-3.225-1.736-7.387,0.689-10.309l3.721-4.437
		c1.791-2.177,4.521-3.335,7.33-3.143c1.654,0.111,3.75,0.221,6.148,0.359c9.398,0.495,23.757,0.937,37.401,0.111
		c3.611-0.221,7.166-0.525,10.583-0.938h0.11c2.729-0.33,5.375-0.744,7.855-1.213c2.177-0.441,4.245-0.937,6.146-1.515
		c2.756-0.828,6.422-2.012,10.888-3.501c42.444-14.057,158.561-55.068,277.959-71.192c5.098-0.662,10.225-1.323,15.351-1.902
		c2.536-0.304,5.071-0.579,7.635-0.855c22.875-2.425,45.697-3.831,67.994-3.831c10.336,0,20.395,0.579,30.263,1.682
		c69.511,7.662,129.816,41.425,205.334,87.922c50.3,0.027,121.629,2.37,184.442,8.048c6.394,0.579,12.679,1.186,18.88,1.847
		c20.723,2.208,41.382,4.831,61.876,8.655c9.715,1.813,19.458,3.937,28.911,6.835c3.224,0.965,6.202,1.957,8.929,3.004
		c7.99,3.076,15.474,7.426,23.125,11.245c0,0,0.11,0.055,0.11,0.055c2.37,1.212,4.631,2.425,6.753,3.583l0.11,0.055
		c28.222,15.187,36.987,23.29,36.987,31.366c0,9.95-6.146,22.463-6.146,22.463S1150,642.651,1150,657.618z M741.601,527.892
		c2.42-0.069,3.368-3.183,1.388-4.577c-40-28.155-112.291-74.04-203.397-74.04c-95.972,0-220.15,34.799-226.011,39.195
		c-2.93,2.564,1.099,9.89,5.495,14.286s13.92,12.088,13.92,12.088S548.599,533.405,741.601,527.892z M828.879,675.147l-0.041-0.002
		l0,0l-410.158-19.621c-0.033,0.023-0.065,0.045-0.098,0.068l0.005,0c-5.169,3.613-7.621,7.081-7.101,8.861
		c0.552,1.902,1.82,4.658,3.529,7.663l403.418,13.421C823.477,682.065,827.832,678.289,828.879,675.147z M1060.056,610.678
		l43.823,4.823c1.819-4.823,18.301-4.823,18.301-4.823l8.847-17.502c0,0-5.319-1.295-12.651-2.977
		c-3.252,8.158-9.123,14.497-9.123,14.497l-58.706-6.146c-0.358,0.303-0.551,0.469-0.551,0.469L1060.056,610.678z M1136.568,647.106
		c0-1.327-1.026-2.429-2.35-2.523l-41.777-2.961c-1.464-0.104-2.708,1.056-2.708,2.523v10.575c0,1.397,1.132,2.529,2.529,2.529
		h41.777c1.397,0,2.529-1.132,2.529-2.529V647.106z M828.837,675.145l-410.158-19.621c-0.033,0.023-0.06,0.045-0.092,0.068
		l410.242,19.576C828.832,675.16,828.835,675.152,828.837,675.145z"></path>
	<path fill="#9392A3" d="M333.942,661.663h-0.028l-16.565,2.922l-4.355,5.981l-21.057,3.721l-7.331-6.146v-21.36l5.154-5.347v-16.84
		c-4.024-0.854-8.213-1.295-12.513-1.295c-4.3,0-8.461,0.441-12.513,1.295v16.84l5.127,5.347v21.36l-5.347,3.748l-20.093-7.304
		l-3.252-6.67l-15.793-5.76h-0.028c-4.355,7.028-7.359,14.994-8.544,23.538l15.793,5.76l6.78-3.032l20.092,7.331l1.709,6.312
		l-13.753,16.372l-7.386,0.772l-10.804,12.899c5.209,6.615,11.714,12.1,19.183,16.096l10.804-12.899l-0.496-7.387l13.726-16.372
		l6.532,0.551l10.666,18.521l-1.764,7.194l8.406,14.552c8.103-2.646,15.462-6.945,21.664-12.54l-8.406-14.525l-7.111-2.04
		l-10.694-18.521l2.756-5.926l21.057-3.721l6.146,4.134l16.537-2.922c0.055-0.634,0.055-1.295,0.055-1.929
		C338.296,676.353,336.753,668.691,333.942,661.663z M277.247,692.973c-4.768,0-8.599-3.859-8.599-8.599
		c0-4.768,3.831-8.599,8.599-8.599c4.741,0,8.599,3.831,8.599,8.599C285.847,689.114,281.988,692.973,277.247,692.973z
		 M1013.011,660.914h-0.028l-16.565,2.922l-4.355,5.981l-21.057,3.721l-7.331-6.146v-21.36l5.154-5.347v-16.84
		c-4.024-0.854-8.213-1.295-12.513-1.295c-4.3,0-8.461,0.441-12.513,1.295v16.84l5.127,5.347v21.36l-5.347,3.748l-20.093-7.304
		l-3.252-6.67l-15.793-5.76h-0.028c-4.355,7.028-7.359,14.994-8.544,23.538l15.793,5.76l6.78-3.032l20.092,7.331l1.709,6.312
		l-13.753,16.372l-7.386,0.772l-10.804,12.899c5.209,6.615,11.714,12.1,19.183,16.096l10.804-12.899l-0.496-7.386l13.726-16.372
		l6.532,0.551l10.666,18.521l-1.764,7.194l8.406,14.552c8.103-2.646,15.462-6.945,21.664-12.541l-8.406-14.525l-7.111-2.04
		l-10.694-18.521l2.756-5.926l21.057-3.721l6.146,4.134l16.537-2.922c0.055-0.634,0.055-1.296,0.055-1.929
		C1017.365,675.604,1015.822,667.942,1013.011,660.914z M956.316,692.224c-4.768,0-8.599-3.859-8.599-8.599
		c0-4.768,3.831-8.599,8.599-8.599c4.74,0,8.599,3.831,8.599,8.599C964.916,688.365,961.057,692.224,956.316,692.224z"></path>
	<path fill="#CF0B08" d="M829.085,674.184c-0.041,0.312-0.133,0.635-0.247,0.961l-410.158-19.621
		c-0.033,0.023-0.065,0.045-0.098,0.068l-0.099-0.005c6.803-4.841,18.348-9.999,33.972-11.884
		c-14.688-38.023-24.111-77.13-24.375-81.89c-0.467-8.373,11.398-31.097,15.903-39.484l9.083,0.491
		c-8.706,16.208-16.961,34.396-16.731,38.532c0.252,4.532,9.997,44.212,24.673,81.682c1.332-0.049,2.689-0.075,4.069-0.075
		c1.086,0,2.187,0.016,3.302,0.048c28.718,0.836,206.905,2.746,302.829,15.952c6.253-30.388,9.957-87.622,8.804-94.34
		c-1.047-5.76-25.907-32.632-43.988-36.573c1.874-0.028,3.721-0.084,5.567-0.139c2.426-0.082,3.39-3.198,1.406-4.576
		c-1.736-1.213-3.529-2.48-5.402-3.775c20.782,4.547,48.894,33.763,50.575,43.657c1.428,8.403-2.453,65.816-8.779,96.93
		C804.032,663.905,822.133,668.517,829.085,674.184z M429.589,688.685c1.452,0.535,18.758,1.183,45.156,1.872
		c3.195,5.199,6.487,9.872,9.875,13.858c0.146,0.001,0.29,0.002,0.437,0.003l10.785,0.066c0.059,0,0.11,0.001,0.169,0.001
		c-3.853-3.529-7.651-8.199-11.339-13.677c77.784,1.906,217.309,4.058,281.3,5.002c-2.101,6.188-4.285,11.026-5.468,13.5
		c1.238,0.055,2.48,0.112,3.702,0.169l5.223,0.226c1.509-3.356,3.458-8.121,5.247-13.767c15.711,0.23,25.044,0.36,25.044,0.36
		s10.191-4.967,18.573-10.742l-403.269-13.417C418.857,678.941,424.828,686.93,429.589,688.685z M374.801,627.044
		c2.07-0.964,2.966-3.422,2.003-5.493c-13.057-28.043-48.842-56.341-99.359-56.341c-49.187,0-85.857,29.169-99.113,56.27
		c-1.003,2.051-0.153,4.527,1.898,5.531c2.054,1.001,4.529,0.152,5.531-1.898c12.163-24.869,46.042-51.635,91.684-51.635
		c46.875,0,79.914,25.897,91.863,51.564c0.701,1.505,2.192,2.39,3.751,2.39C373.642,627.432,374.236,627.307,374.801,627.044z
		 M1053.657,630.251c2.071-0.964,2.968-3.422,2.004-5.492c-13.055-28.045-48.84-56.343-99.358-56.343
		c-49.186,0-85.857,29.168-99.114,56.27c-1.003,2.051-0.153,4.527,1.898,5.531c2.052,0.999,4.527,0.151,5.531-1.898
		c12.164-24.869,46.045-51.635,91.685-51.635c46.876,0,79.914,25.897,91.862,51.562c0.701,1.506,2.192,2.391,3.751,2.391
		C1052.499,630.639,1053.093,630.513,1053.657,630.251z M461.621,570.376c2.777,0,34.777,1.058,40.066,1.058
		c5.289,0,10.446-3.438,16.925-9.653c0.529-3.438-1.851-8.463-5.95-8.992c-4.099-0.529-45.091-1.058-50.776-1.058
		c-5.686,0-9.917,5.95-9.917,10.049C451.968,566.012,458.183,570.376,461.621,570.376z M155.631,654.01
		c-15.438-20.125-55.964-23.157-70.024-23.709c-14.06-0.551-17.644,7.443-14.887,17.092
		C70.721,647.393,150.118,657.869,155.631,654.01z M411.844,545.442c-9.647-7.442-20.781-10.777-31.641-13.285
		c-10.942-2.453-21.967-3.776-32.964-4.658c-21.856-1.295-43.437-3.142-65.211-5.044c-35.582-3.115-71.137-6.394-106.691-9.784
		c-0.028,0.028-0.083,0.028-0.11,0c-4.493,1.488-8.158,2.674-10.914,3.5c-1.902,0.579-3.969,1.075-6.174,1.488
		c0.055,0,0.11,0,0.165,0.028c40.984,4.272,81.968,8.517,123.008,12.485c21.691,2.04,43.575,4.217,65.266,5.595
		c10.722,0.854,21.415,2.205,31.779,4.548c10.253,2.343,20.561,5.65,28.333,11.603l0.11,0.083c1.819,1.406,4.41,1.047,5.788-0.744
		C413.994,549.438,413.664,546.848,411.844,545.442z"></path>
	<path fill="#D3E2EA" d="M1118.392,590.158c-3.252,8.158-9.123,14.497-9.123,14.497l-58.706-6.146
		c3.114-2.563,18.576-15.076,27.589-15.434C1084.657,582.826,1104.915,587.126,1118.392,590.158z M90.577,547.013
		c0,0-9.233,13.919-18.329,25.522c14.387-1.185,25.853-16.261,25.853-16.261L90.577,547.013z M718.245,518.519
		c-16.797,0.315-34.245,0.475-52.122,0.475c-0.004,0-0.009,0-0.013,0c-76.288-0.001-151.741-2.89-211.424-6.047l-15.132-44.489
		c32.465-5.331,67.552-9.261,100.038-9.261C613.371,459.197,674.563,490.1,718.245,518.519z M445.791,512.469l-14.495-42.615
		c-48.767,8.47-90.382,19.706-106.209,24.79c0.312,0.371,0.649,0.74,1.004,1.097c2.553,2.553,7.516,6.754,10.801,9.472
		C348.07,506.127,389.033,509.362,445.791,512.469z"></path>
</g>
</svg>